<svg id="visual" viewBox="0 0 900 600" width="900" height="600" xmlns="http://www.w3.org/2000/svg" xmlns:xlink="http://www.w3.org/1999/xlink" version="1.1"><rect x="0" y="0" width="900" height="600" fill="#002233"></rect><path d="M0 451L21.5 446.7C43 442.3 86 433.7 128.8 444.7C171.7 455.7 214.3 486.3 257.2 483.7C300 481 343 445 385.8 444.8C428.7 444.7 471.3 480.3 514.2 477.8C557 475.3 600 434.7 642.8 413.7C685.7 392.7 728.3 391.3 771.2 392.7C814 394 857 398 878.5 400L900 402L900 601L878.5 601C857 601 814 601 771.2 601C728.3 601 685.7 601 642.8 601C600 601 557 601 514.2 601C471.3 601 428.7 601 385.8 601C343 601 300 601 257.2 601C214.3 601 171.7 601 128.8 601C86 601 43 601 21.5 601L0 601Z" fill="#0066FF" stroke-linecap="round" stroke-linejoin="miter"></path></svg>